<svg width="171" height="117" viewBox="0 0 171 117" fill="none" xmlns="http://www.w3.org/2000/svg">
<path d="M147.776 56.2245V116M1 116V30.9604C1 27.4751 3.73369 24.6503 7.10661 24.6503C21.8721 24.6503 84.2198 24.6503 121.143 24.6503" stroke="#26292C" stroke-width="2" stroke-linecap="round" stroke-linejoin="round"/>
<path fill-rule="evenodd" clip-rule="evenodd" d="M153.425 47.024L153.908 41.8904C156.287 41.0905 158.448 39.8109 160.281 38.1651L164.924 40.3107C165.743 40.6889 166.711 40.3759 167.161 39.5879L170.726 33.3446C171.176 32.5565 170.96 31.5518 170.227 31.0241L166.07 28.033C166.313 26.8306 166.44 25.5858 166.44 24.3108C166.44 23.0359 166.313 21.7911 166.07 20.5886L170.227 17.5975C170.96 17.0699 171.176 16.0651 170.726 15.2771L167.161 9.03376C166.711 8.24571 165.743 7.93273 164.924 8.31094L160.281 10.4565C158.448 8.81075 156.287 7.53118 153.908 6.73125L153.425 1.59766C153.34 0.691799 152.587 0 151.687 0H144.558C143.658 0 142.906 0.691799 142.82 1.59766L142.337 6.73125C139.959 7.53118 137.797 8.81075 135.964 10.4565L131.321 8.31094C130.503 7.93273 129.534 8.24571 129.084 9.03376L125.519 15.2771C125.069 16.0651 125.286 17.0699 126.019 17.5975L130.175 20.5886C129.932 21.7911 129.805 23.0359 129.805 24.3108C129.805 25.5858 129.932 26.8306 130.175 28.033L126.019 31.0241C125.286 31.5518 125.069 32.5565 125.519 33.3446L129.084 39.5879C129.534 40.3759 130.503 40.6889 131.321 40.3107L135.964 38.1651C137.797 39.8109 139.959 41.0905 142.337 41.8904L142.82 47.024C142.906 47.9299 143.658 48.6217 144.558 48.6217H151.687C152.587 48.6217 153.34 47.9299 153.425 47.024ZM156.963 23.9425C156.963 28.6214 153.17 32.4145 148.491 32.4145C143.812 32.4145 140.019 28.6214 140.019 23.9425C140.019 19.2636 143.812 15.4706 148.491 15.4706C153.17 15.4706 156.963 19.2636 156.963 23.9425Z" fill="#7BAAED"/>
<path d="M80.5625 64.7999H111.504" stroke="#26292C" stroke-width="2" stroke-linecap="round"/>
<path d="M80.5742 75.1136H111.515" stroke="#26292C" stroke-width="2" stroke-linecap="round"/>
<path d="M80.5742 85.4272H101.202" stroke="#26292C" stroke-width="2" stroke-linecap="round"/>
<path fill-rule="evenodd" clip-rule="evenodd" d="M19.9385 97.2435C19.9385 86.225 28.9476 77.2928 40.0609 77.2928C51.1742 77.2928 60.1834 86.225 60.1834 97.2435" stroke="#26292C" stroke-width="2" stroke-linecap="round" stroke-linejoin="round"/>
<path fill-rule="evenodd" clip-rule="evenodd" d="M48.1441 62.7158C48.1441 66.8708 44.6031 70.4134 40.0189 70.4134C35.8639 70.4134 32.3213 66.8708 32.3213 62.7158C32.3213 58.1332 35.8639 54.5906 40.0189 54.5906C44.6031 54.5906 48.1441 58.1332 48.1441 62.7158Z" stroke="#26292C" stroke-width="2" stroke-linecap="round" stroke-linejoin="round"/>
</svg>
