<svg width="159" height="118" viewBox="0 0 159 118" fill="none" xmlns="http://www.w3.org/2000/svg">
<path d="M18.9457 98.4109V1L27.918 9.85554L36.8903 1L45.8627 9.85554L54.835 1L63.8073 9.85554L72.7797 1L81.752 9.85554L90.7244 1L99.6967 9.85554L108.669 1V48.7801M85.094 116.122H18.7121C8.9305 116.122 1.00098 108.192 1.00098 98.4109V98.4109H90.7244V107.15C90.7244 112.105 94.7414 116.122 99.6967 116.122V116.122C104.652 116.122 108.669 112.105 108.669 107.15V104.842" stroke="#26292C" stroke-width="2" stroke-linecap="round" stroke-linejoin="round"/>
<path d="M35.7861 43.6532H87.9637" stroke="#26292C" stroke-width="2" stroke-linecap="round"/>
<path d="M35.7861 52.7635H67.2583" stroke="#26292C" stroke-width="2" stroke-linecap="round"/>
<path fill-rule="evenodd" clip-rule="evenodd" d="M128.555 105.761C144.818 105.761 158.001 92.5773 158.001 76.3148C158.001 60.0523 144.818 46.8689 128.555 46.8689C112.293 46.8689 99.1094 60.0523 99.1094 76.3148C99.1094 92.5773 112.293 105.761 128.555 105.761Z" fill="#7BAAED"/>
<path d="M128.974 76.3149C128.974 76.3149 120.982 73.4405 120.982 69.4579C120.982 65.4753 124.162 62.8539 129.272 62.8539C133.321 62.8539 136.304 65.2009 136.967 67.4332" stroke="#26292C" stroke-width="2" stroke-linecap="round" stroke-linejoin="round"/>
<path d="M128.975 76.3154C128.975 76.3154 136.967 79.1897 136.967 83.1723C136.967 87.1549 133.787 89.7764 128.677 89.7764C124.628 89.7764 121.645 87.4293 120.982 85.197" stroke="#26292C" stroke-width="2" stroke-linecap="round" stroke-linejoin="round"/>
<path d="M128.976 58.3108V62.8539" stroke="#26292C" stroke-width="2" stroke-linecap="round" stroke-linejoin="round"/>
<path d="M128.976 91.1217V95.6648" stroke="#26292C" stroke-width="2" stroke-linecap="round" stroke-linejoin="round"/>
</svg>
