<svg width="113" height="118" viewBox="0 0 113 118" fill="none" xmlns="http://www.w3.org/2000/svg">
<path fill-rule="evenodd" clip-rule="evenodd" d="M85.4254 92.0532C81.004 95.9796 75.7893 99.0323 70.0521 100.941L68.8856 113.188C68.6798 115.35 66.8647 117 64.6937 117H47.4944C45.3234 117 43.5083 115.35 43.3025 113.188L42.136 100.941C36.3988 99.0323 31.1841 95.9796 26.7627 92.0532L15.5614 97.172C13.5868 98.0743 11.2499 97.3276 10.1644 95.4475L1.56474 80.5525C0.47927 78.6724 1.0002 76.2752 2.76977 75.0163L12.7961 67.8803C12.2109 65.0116 11.9036 62.0417 11.9036 59C11.9036 55.9583 12.2109 52.9884 12.7961 50.1197L2.76977 42.9837C1.0002 41.7248 0.47927 39.3276 1.56474 37.4475L10.1644 22.5525C11.2499 20.6724 13.5868 19.9256 15.5614 20.828L26.7627 25.9468C31.1841 22.0204 36.3988 18.9676 42.136 17.0592L43.3025 4.81164C43.5083 2.65047 45.3234 1 47.4944 1H64.6937C66.8647 1 68.6798 2.65047 68.8856 4.81164L70.0521 17.0592C75.7893 18.9676 81.004 22.0204 85.4254 25.9468L96.6268 20.828C98.6013 19.9256 100.938 20.6724 102.024 22.5525L110.623 37.4475C111.709 39.3276 111.188 41.7248 109.418 42.9837L99.392 50.1197C99.9772 52.9884 100.285 55.9583 100.285 59C100.285 62.0417 99.9772 65.0116 99.392 67.8803L109.418 75.0163C111.188 76.2752 111.709 78.6724 110.623 80.5525L102.024 95.4475C100.938 97.3276 98.6013 98.0743 96.6268 97.172L85.4254 92.0532Z" stroke="#26292C" stroke-width="2" stroke-linecap="round" stroke-linejoin="round"/>
<path d="M56.4896 80.1023C68.2264 80.1023 77.741 70.5878 77.741 58.851C77.741 47.1142 68.2264 37.5996 56.4896 37.5996C44.7528 37.5996 35.2383 47.1142 35.2383 58.851C35.2383 70.5878 44.7528 80.1023 56.4896 80.1023Z" fill="#7BAAED"/>
<path d="M47.0439 49.4059L65.934 68.296" stroke="#26292C" stroke-width="2" stroke-linecap="round"/>
</svg>
