<svg width="139" height="120" viewBox="0 0 139 120" fill="none" xmlns="http://www.w3.org/2000/svg">
<path fill-rule="evenodd" clip-rule="evenodd" d="M130.477 12.8789H83.2966L74.1047 3.10476C72.2447 1.12358 69.6544 0 66.9432 0H29.4803C24.7734 0 20.957 3.84304 20.957 8.58595V24.6605H50.0924C53.9861 27.9053 59.8268 33.746 63.7206 37.6397C63.7206 37.6397 105.254 37.6397 111.095 37.6397C115.637 37.6397 118.882 42.8314 118.882 43.4804V94.3833H130.477C135.184 94.3833 139 90.5403 139 85.7974V21.4649C139 16.722 135.184 12.8789 130.477 12.8789Z" fill="#7BAAED"/>
<path fill-rule="evenodd" clip-rule="evenodd" d="M110.549 37.4957H63.3688L54.177 27.7216C52.3169 25.7404 49.7267 24.6168 47.0155 24.6168H9.55258C4.84566 24.6168 1.02931 28.4599 1.02931 33.2028V110.414C1.02931 115.157 4.84566 119 9.55258 119H110.549C115.256 119 119.072 115.157 119.072 110.414V46.0817C119.072 41.3388 115.256 37.4957 110.549 37.4957Z" stroke="#26292C" stroke-width="2"/>
<path d="M39.459 34.1931H16.1249" stroke="#26292C" stroke-width="2" stroke-linecap="round" stroke-linejoin="round"/>
</svg>
