<svg width="195" height="122" viewBox="0 0 195 122" fill="none" xmlns="http://www.w3.org/2000/svg">
<path d="M24.9554 35.2003C24.179 33.6047 22.5421 32.5051 20.6484 32.5051C18.0046 32.5051 15.8613 34.6484 15.8613 37.2922C15.8613 39.9361 17.824 41.3071 20.4084 42.0793V42.0793" stroke="#26292C" stroke-width="2" stroke-linecap="round" stroke-linejoin="round"/>
<path d="M15.8613 48.9584C16.6377 50.5539 18.2746 51.6535 20.1683 51.6535C22.8122 51.6535 24.9554 49.5103 24.9554 46.8664C24.9554 44.2226 22.8391 42.9261 20.4084 42.0793V42.0793" stroke="#26292C" stroke-width="2" stroke-linecap="round" stroke-linejoin="round"/>
<path fill-rule="evenodd" clip-rule="evenodd" d="M20.4075 51.6536V54.9373V51.6536Z" stroke="#26292C" stroke-width="2" stroke-linecap="round" stroke-linejoin="round"/>
<path fill-rule="evenodd" clip-rule="evenodd" d="M20.4075 29.4739V32.5052V29.4739Z" stroke="#26292C" stroke-width="2" stroke-linecap="round" stroke-linejoin="round"/>
<circle cx="20.1953" cy="42.5899" r="19.1953" stroke="#26292C" stroke-width="2"/>
<path d="M79.915 36.7247V33.0535C79.915 31.2866 81.3474 29.8542 83.1143 29.8542H116.73C118.497 29.8542 119.929 31.2866 119.929 33.0535V36.7247M79.915 36.7247V55.7562C79.915 57.5231 81.3474 58.9554 83.1143 58.9554H116.73C118.497 58.9554 119.929 57.5231 119.929 55.7562V36.7247M79.915 36.7247H119.929" stroke="#26292C" stroke-width="2" stroke-linecap="round" stroke-linejoin="round"/>
<path d="M88.7754 25.5273V31.9258" stroke="#26292C" stroke-width="2" stroke-linecap="round" stroke-linejoin="round"/>
<path d="M111.17 25.5273V31.9258" stroke="#26292C" stroke-width="2" stroke-linecap="round" stroke-linejoin="round"/>
<path fill-rule="evenodd" clip-rule="evenodd" d="M108.107 51.6757C110.618 51.6757 112.654 49.6399 112.654 47.1286C112.654 44.6173 110.618 42.5815 108.107 42.5815C105.595 42.5815 103.56 44.6173 103.56 47.1286C103.56 49.6399 105.595 51.6757 108.107 51.6757Z" stroke="#26292C" stroke-width="2" stroke-linecap="round" stroke-linejoin="round"/>
<path d="M129.007 72.7485L137.975 81.7171" stroke="#26292C" stroke-width="2" stroke-linecap="round" stroke-linejoin="round"/>
<path fill-rule="evenodd" clip-rule="evenodd" d="M174.944 117.871C172.056 120.759 167.374 120.759 164.483 117.871L138.511 91.8987C135.623 89.01 135.623 84.326 138.511 81.4374C141.4 78.5487 146.084 78.5487 148.973 81.4374L174.944 107.409C177.833 110.3 177.833 114.982 174.944 117.871Z" fill="#7BAAED" stroke="#7BAAED" stroke-width="2" stroke-linecap="round" stroke-linejoin="round"/>
<path fill-rule="evenodd" clip-rule="evenodd" d="M100.062 83.3476C122.802 83.3476 141.236 64.9135 141.236 42.1738C141.236 19.4341 122.802 1 100.062 1C77.3228 1 58.8887 19.4341 58.8887 42.1738C58.8887 64.9135 77.3228 83.3476 100.062 83.3476Z" stroke="#26292C" stroke-width="2"/>
<path d="M184.952 32.8026C184.952 32.8026 181.582 33.5485 177.968 32.2752C174.516 31.059 171.503 28.2338 171.239 27.9825C171.227 27.9716 171.229 27.9554 171.241 27.9443V27.9443C172.813 26.3955 174.931 25.5273 177.137 25.5273L177.331 25.5273V25.5273C182.692 25.5273 187.038 29.8731 187.038 35.2338C187.038 35.3848 187.038 35.5356 187.038 35.6859C187.038 37.8732 185.556 39.9824 183.93 41.6384C182.31 43.289 182.514 46.3139 184.6 47.3132V47.3132C184.608 47.3173 184.618 47.3201 184.627 47.3216V47.3216C189.814 48.152 193.701 52.6384 193.701 57.8913V61.9718L160.962 61.9038V57.9002C160.962 52.6414 164.856 48.1504 170.049 47.3215V47.3215C170.057 47.3201 170.066 47.3174 170.074 47.3135V47.3135C172.102 46.3423 172.252 43.3354 170.669 41.7394C169.073 40.131 167.637 38.032 167.637 35.6859" stroke="#26292C" stroke-width="2" stroke-linecap="round" stroke-linejoin="round"/>
<path d="M168.85 48.6338C168.85 48.6338 171.899 52.0228 177.487 52.0228C183.074 52.0228 186.124 48.6338 186.124 48.6338" stroke="#26292C" stroke-width="2" stroke-linecap="round" stroke-linejoin="round"/>
</svg>
