<svg width="78" height="128" viewBox="0 0 78 128" fill="none" xmlns="http://www.w3.org/2000/svg">
<path fill-rule="evenodd" clip-rule="evenodd" d="M25.5551 1C22.282 1 17.3724 1 10.8263 1C5.39886 1 1 5.12977 1 10.2226V117.111C1 122.205 5.39886 126.333 10.8263 126.333H66.3737C71.7999 126.333 76.2 122.205 76.2 117.111V10.2226C76.2 5.12977 71.7999 1 66.3737 1C60.3637 1 56.0056 1 53.2995 1H25.5551Z" stroke="#26292C" stroke-width="2" stroke-linecap="round" stroke-linejoin="round"/>
<path d="M34.4229 7.56521H42.7784" stroke="#26292C" stroke-width="2" stroke-linecap="round" stroke-linejoin="round"/>
<rect x="9.35547" y="34.4222" width="26.2603" height="26.2603" rx="4.7746" fill="#7BAAED"/>
<rect x="10.3555" y="66.4571" width="24.2603" height="24.2603" rx="3.7746" stroke="#26292C" stroke-width="2" stroke-linecap="round" stroke-linejoin="round"/>
<rect x="41.3906" y="35.4222" width="24.2603" height="24.2603" rx="3.7746" stroke="#26292C" stroke-width="2" stroke-linecap="round" stroke-linejoin="round"/>
<path d="M53.5205 71.4255V85.7493" stroke="#26292C" stroke-width="2" stroke-linecap="round" stroke-linejoin="round"/>
<path d="M46.3594 78.5872L60.6832 78.5872" stroke="#26292C" stroke-width="2" stroke-linecap="round" stroke-linejoin="round"/>
</svg>
