<svg width="112" height="125" viewBox="0 0 112 125" fill="none" xmlns="http://www.w3.org/2000/svg">
<path fill-rule="evenodd" clip-rule="evenodd" d="M1.16123 36.8269C0.819406 30.5544 1.02094 24.3099 1.76748 18.2063C24.617 18.1784 42.6741 12.443 55.6667 1C68.6592 12.443 86.7163 18.1784 109.566 18.2063C114.412 57.825 96.2943 103.381 55.6667 124C26.9959 109.449 9.53536 82.4795 3.44433 53.9417" stroke="#26292C" stroke-width="2" stroke-linecap="round" stroke-linejoin="round"/>
<path d="M42 50.0757V43.9465C42 36.3528 48.1188 30.197 55.6667 30.197C63.2146 30.197 69.3333 36.3528 69.3333 43.9465V50.0757" stroke="#26292C" stroke-width="2"/>
<path d="M78.7351 47.5909H32.5986C32.107 47.5909 31.6619 47.7953 31.3398 48.1256C31.0176 48.456 30.8184 48.9124 30.8184 49.4165V83.0381C30.8184 83.5422 31.0176 83.9986 31.3398 84.329C31.6619 84.6593 32.107 84.8637 32.5986 84.8637H78.7351C79.2267 84.8637 79.6718 84.6593 79.9939 84.329C80.3161 83.9986 80.5153 83.5422 80.5153 83.0381V49.4165C80.5153 48.9124 80.3161 48.456 79.9939 48.1256C79.6718 47.7953 79.2267 47.5909 78.7351 47.5909Z" fill="#7BAAED"/>
<path d="M55.6672 72.4393C59.0981 72.4393 61.8793 69.6581 61.8793 66.2272C61.8793 62.7963 59.0981 60.0151 55.6672 60.0151C52.2363 60.0151 49.4551 62.7963 49.4551 66.2272C49.4551 69.6581 52.2363 72.4393 55.6672 72.4393Z" stroke="#26292C" stroke-width="2"/>
</svg>
